<?xml version="1.0" standalone="no"?>
<!DOCTYPE svg PUBLIC "-//W3C//DTD SVG 20010904//EN"
 "http://www.w3.org/TR/2001/REC-SVG-20010904/DTD/svg10.dtd">
<svg version="1.0" xmlns="http://www.w3.org/2000/svg"
 width="512.000000pt" height="512.000000pt" viewBox="0 0 512.000000 512.000000"
 preserveAspectRatio="xMidYMid meet">
<metadata>
Created by potrace 1.14, written by Peter Selinger 2001-2017
</metadata>
<g transform="translate(0.000000,512.000000) scale(0.100000,-0.100000)"
fill="#000000" stroke="none">
<path d="M917 4894 c-363 -66 -645 -358 -697 -722 -8 -54 -10 -548 -8 -1667
l3 -1590 23 -73 c52 -170 120 -280 245 -398 123 -118 282 -197 447 -223 91
-15 3170 -15 3260 0 184 29 324 103 465 244 142 142 216 284 245 471 7 47 10
570 8 1664 l-3 1595 -28 90 c-94 300 -313 514 -612 598 l-80 22 -1595 2
c-1337 1 -1608 -1 -1673 -13z m752 -884 c267 -123 330 -473 122 -681 -163
-162 -419 -167 -584 -10 -173 163 -182 423 -22 600 115 126 322 165 484 91z"/>
</g>
</svg>
