<?xml version="1.0" standalone="no"?>
<!DOCTYPE svg PUBLIC "-//W3C//DTD SVG 20010904//EN"
 "http://www.w3.org/TR/2001/REC-SVG-20010904/DTD/svg10.dtd">
<svg version="1.0" xmlns="http://www.w3.org/2000/svg"
 width="700.000000pt" height="700.000000pt" viewBox="0 0 700.000000 700.000000"
 preserveAspectRatio="xMidYMid meet">
<metadata>
Created by potrace 1.14, written by Peter Selinger 2001-2017
</metadata>
<g transform="translate(0.000000,700.000000) scale(0.100000,-0.100000)"
fill="#000000" stroke="none">
<path d="M683 5732 l-103 -105 0 -2134 0 -2133 105 -105 106 -105 2762 0 2762
0 106 107 106 108 -1 2132 -1 2133 -104 104 -104 104 -2766 -1 -2766 -1 -102
-104z m5422 -2237 l0 -1920 -2552 -3 -2553 -2 0 1924 0 1924 2553 -2 2552 -1
0 -1920z"/>
<path d="M1975 4782 c-215 -41 -361 -236 -342 -458 4 -45 17 -87 41 -138 125
-259 468 -315 670 -111 82 82 116 164 121 290 9 255 -238 465 -490 417z"/>
<path d="M4163 3909 c-17 -5 -45 -26 -61 -47 -24 -30 -401 -555 -491 -683 -42
-59 -518 -722 -533 -742 -12 -17 -40 22 -297 406 -196 294 -292 429 -314 442
-41 25 -108 23 -146 -4 -17 -13 -178 -243 -382 -549 -193 -290 -358 -534 -365
-543 -26 -29 -27 -72 -4 -102 l21 -27 1955 0 1955 0 24 25 c46 45 52 31 -184
360 -67 94 -129 179 -137 190 -70 97 -198 275 -212 295 -9 14 -53 75 -97 137
-44 61 -87 121 -95 133 -31 45 -190 265 -197 275 -5 6 -69 95 -143 198 -138
194 -174 237 -195 237 -7 0 -25 2 -41 4 -16 3 -43 1 -61 -5z"/>
</g>
</svg>
